PathFileType	4	(X/Y/Z)	..\data\2014007\dynamic\2014007_C4_04.trc
DataRate	CameraRate	NumFrames	NumMarkers	Units	OrigDataRate	OrigDataStartFrame	OrigNumFrames
100.000000	100.000000	4	52	mm	100.000000	0	188
Frame#	Time	L_IAS			L_IPS			R_IPS			R_IAS			L_FTC			L_FLE			L_FME			L_FAX			L_TTC			L_FAL			L_TAM			L_FCC			L_FM1			L_FM2			L_FM5			R_FTC			R_FLE			R_FME			R_FAX			R_TTC			R_FAL			R_TAM			R_FCC			R_FM1			R_FM2			R_FM5			CV7			TV10			SXS			SJN			L_SIA			L_SRS			L_SAA			L_SAE			L_HLE			L_HME			L_UOA			L_RSP			L_UHE			L_HM2			L_HM5			R_SIA			R_SRS			R_SAA			R_SAE			R_HLE			R_HME			R_UOA			R_RSP			R_UHE			R_HM2			R_HM5			
		X1	Y1	Z1	X2	Y2	Z2	X3	Y3	Z3	X4	Y4	Z4	X5	Y5	Z5	X6	Y6	Z6	X7	Y7	Z7	X8	Y8	Z8	X9	Y9	Z9	X10	Y10	Z10	X11	Y11	Z11	X12	Y12	Z12	X13	Y13	Z13	X14	Y14	Z14	X15	Y15	Z15	X16	Y16	Z16	X17	Y17	Z17	X18	Y18	Z18	X19	Y19	Z19	X20	Y20	Z20	X21	Y21	Z21	X22	Y22	Z22	X23	Y23	Z23	X24	Y24	Z24	X25	Y25	Z25	X26	Y26	Z26	X27	Y27	Z27	X28	Y28	Z28	X29	Y29	Z29	X30	Y30	Z30	X31	Y31	Z31	X32	Y32	Z32	X33	Y33	Z33	X34	Y34	Z34	X35	Y35	Z35	X36	Y36	Z36	X37	Y37	Z37	X38	Y38	Z38	X39	Y39	Z39	X40	Y40	Z40	X41	Y41	Z41	X42	Y42	Z42	X43	Y43	Z43	X44	Y44	Z44	X45	Y45	Z45	X46	Y46	Z46	X47	Y47	Z47	X48	Y48	Z48	X49	Y49	Z49	X50	Y50	Z50	X51	Y51	Z51	X52	Y52	Z52	

1	0	-988.0600585937502	904.8169555664065	141.434600830078	-1191.830322265625	977.9477539062502	223.1337432861327	-1189.763671875	981.3809204101565	303.7874450683593	-1004.640319824219	921.367370605469	397.5049743652344	-1050.863037109375	879.578552246094	77.16260528564442	-1138.457153320313	457.0515136718751	142.7481231689452	-1153.561889648438	449.1550598144532	267.1790771484374	-1172.0146484375	398.864227294922	142.4225616455077	-1127.290405273438	379.8319702148438	203.5558013916015	-1276.8095703125	71.88311004638673	184.8444366455077	-1256.14453125	88.56388092041017	265.5157165527343	-1330.27734375	39.06561279296876	233.2139892578124	-1146.112182617188	27.42183303833009	261.7772521972656	-1137.476440429688	41.63342666625977	208.8898162841796	-1176.678955078125	25.8564624786377	160.0840454101561	-1065.061645507813	865.4461059570315	456.7476501464844	-911.2480468750002	477.7829589843751	392.2145690917969	-926.064147949219	470.6370849609376	260.0084533691406	-911.123474121094	411.4502868652345	393.8013610839844	-853.332946777344	427.5763549804689	337.2603149414062	-801.9700927734377	74.96903228759767	359.2976684570312	-792.7378540039065	100.061149597168	275.7210998535156	-838.860046386719	26.79792785644532	305.0103149414062	-659.4324951171876	70.82698822021486	289.4326782226562	-663.2153320312501	90.37837982177736	333.8089599609375	-695.4168090820314	70.00868988037111	378.5908813476562	-1134.1611328125	1425.391723632813	232.1414947509765	-1194.221801757813	1188.969604492188	250.3224945068359	-1013.451171875	1339.048095703125	239.0134887695312	-945.6118774414065	1165.739379882813	253.1132507324218	-1195.967529296875	1201.815795898438	145.8484954833983	-1173.394409179688	1342.351806640625	147.0688629150389	-1136.92431640625	1341.4072265625	78.08400726318347	-1084.263916015625	1343.558837890625	53.5809631347655	-1027.363647460938	1027.194580078125	-16.38052368164075	-1050.464111328125	1002.704345703125	60.27547073364246	-1053.633666992188	994.9333496093752	9.036604881286493	-834.2810058593752	856.9304809570315	31.89587211608877	-867.2038574218752	837.3717041015627	-33.6770477294923	-761.9335327148439	801.059509277344	25.13917732238761	-832.2095947265627	760.2595214843751	-33.37260055542003	-1213.396118164063	1218.449096679688	340.6973571777343	-1181.98388671875	1347.818237304688	333.8353576660155	-1137.441772460938	1370.17626953125	401.3916015625	-1094.872924804688	1373.35302734375	423.6320190429688	-1136.933959960938	1064.513305664063	525.057861328125	-1173.197875976563	1052.627563476563	448.1273803710937	-1176.481689453125	1038.033935546875	500.3550415039062	-1028.093017578125	823.5114746093752	507.3854370117188	-1078.726318359375	826.7091064453127	569.3077392578125	-1000.122741699219	744.5313110351564	515.0453491210938	-1077.057373046875	751.0314331054689	580.5951538085938	
2	0.01	-978.9302978515627	903.3985595703127	141.5067443847655	-1182.519409179688	976.3574218750002	223.975601196289	-1180.41015625	979.6423950195315	304.6027221679686	-994.9351806640627	919.887145996094	397.8431701660156	-1042.120361328125	878.3016357421877	77.4020538330077	-1132.761474609375	456.4796142578126	142.8076782226561	-1147.11279296875	448.5461425781251	267.2377014160156	-1166.933471679688	398.5861206054689	142.4889831542968	-1122.329223632813	378.8659973144532	203.4210205078124	-1276.177490234375	72.93349456787111	184.753448486328	-1255.299438476563	89.2720184326172	265.4236755371093	-1329.949951171875	40.75483703613282	233.1743927001952	-1145.998291015625	27.45261192321778	261.7068786621093	-1137.268188476563	41.6612892150879	208.8258514404296	-1176.669677734375	25.94637107849122	160.1433868408202	-1055.395874023438	863.5759887695315	456.9931945800781	-899.9228515625002	477.0984802246095	391.7355651855469	-915.6978149414065	469.8452758789064	259.7953491210937	-899.668884277344	410.5604553222657	393.4163513183594	-842.5174560546877	426.8694152832032	336.2725524902343	-792.1208496093752	74.26763916015626	358.5805664062499	-783.1826171875002	98.95787048339847	274.8120727539062	-829.2998657226565	25.99981117248536	304.6520080566406	-649.7296142578126	69.42207336425783	288.4002380371094	-653.6838378906251	89.46466064453126	332.4476013183594	-685.7693481445314	69.58206939697267	377.5599670410156	-1125.456298828125	1423.859741210938	233.3631591796874	-1185.3330078125	1187.37451171875	251.3118743896484	-1004.59619140625	1337.673461914063	240.1027069091796	-936.5759887695315	1164.384399414063	253.8925323486328	-1187.154418945313	1200.290649414063	147.0135345458983	-1164.731079101563	1340.875122070313	148.2954559326171	-1128.303588867188	1339.990966796875	79.27304840087878	-1075.678100585938	1342.237060546875	54.72792816162097	-1018.519104003906	1025.993896484375	-15.74051475524915	-1041.847534179688	1001.512084960938	60.95442962646473	-1044.508422851563	993.511169433594	9.908233642577999	-824.5168457031252	856.9453735351565	33.10602951049795	-857.2119140625002	837.0994262695315	-32.49802780151379	-751.7608642578126	801.6201171875002	26.46652221679679	-821.6463623046877	760.2469482421876	-32.09073638916026	-1204.368286132813	1216.63916015625	341.6839294433593	-1173.170532226563	1346.079345703125	334.9605102539061	-1128.671997070313	1368.44091796875	402.5377807617188	-1086.117919921875	1371.66015625	424.7876586914062	-1127.901489257813	1062.649658203125	525.85205078125	-1164.146484375	1050.778076171875	448.9106750488281	-1167.427612304688	1036.14990234375	501.0726623535156	-1018.880004882813	821.7612915039065	507.7746887207031	-1069.391723632813	824.8662109375002	569.8076171875	-990.9307250976566	742.7826538085939	515.2268676757812	-1067.68310546875	749.1729736328126	580.9761962890625	
3	0.02	-969.583435058594	901.962341308594	141.6866455078124	-1173.02587890625	974.8388671875002	224.8188171386718	-1170.898559570313	978.002380371094	305.4143066406249	-985.1066894531252	918.508239746094	398.3121337890625	-1033.148803710938	877.026306152344	77.73669433593739	-1126.871459960938	455.9718017578126	142.9086456298827	-1140.529174804688	447.9992065429689	267.3373107910156	-1161.682006835938	398.3785095214845	142.5652618408202	-1117.243896484375	377.9538269042969	203.3311920166015	-1275.493896484375	74.11045074462892	184.5454711914061	-1254.4375	90.12070465087892	265.2449340820311	-1329.636962890625	42.63041687011719	233.0005340576171	-1145.855346679688	27.51393508911134	261.6206665039062	-1137.011840820313	41.71492004394532	208.7445220947265	-1176.608764648438	26.02215957641602	160.1783599853514	-1045.640991210938	861.871520996094	457.3377075195312	-888.2734985351565	476.6197204589845	391.3509826660156	-904.8916625976565	469.3475036621095	259.7157897949218	-888.1159667968752	409.8091125488282	393.1090393066406	-831.5797119140627	426.0643615722657	335.4339904785156	-784.1801757812502	73.23232269287111	357.8009948730468	-775.376892089844	97.42958068847659	273.8144226074218	-821.896667480469	25.09068298339844	304.2199707031249	-641.9647827148439	67.11663055419923	287.3621520996094	-646.0142822265626	87.56047821044923	331.149169921875	-678.0855712890626	68.2499237060547	376.4573974609375	-1116.69970703125	1422.385498046875	234.6600189208984	-1176.340942382813	1185.822631835938	252.3242797851562	-995.6684570312502	1336.392700195313	241.2581787109374	-927.3955688476565	1163.145263671875	254.711441040039	-1178.220703125	1198.817016601563	148.2157287597655	-1155.988403320313	1339.45361328125	149.5885162353514	-1119.60791015625	1338.656860351563	80.52583312988268	-1067.02294921875	1341.011596679688	55.9325828552245	-1009.871459960938	1024.817504882813	-14.97558975219739	-1033.436645507813	1000.392517089844	61.75859832763661	-1035.619506835938	992.1582031250002	10.91313266754138	-815.178894042969	856.729431152344	34.31868743896475	-847.7129516601565	836.637145996094	-31.29599952697765	-742.1091308593751	801.844177246094	27.76395988464347	-811.689392089844	759.9982910156251	-30.79776000976573	-1195.23193359375	1214.822998046875	342.675079345703	-1164.294921875	1344.349609375	336.1308288574218	-1119.8623046875	1366.71728515625	403.7423095703125	-1077.330078125	1369.99169921875	426.0094604492188	-1118.775512695313	1060.802490234375	526.693115234375	-1154.992919921875	1048.930541992188	449.7468872070312	-1158.269165039063	1034.282348632813	501.8337097167969	-1009.554931640625	820.0362548828127	508.2280578613281	-1059.942626953125	823.0483398437502	570.3700561523438	-981.6130371093753	741.0682983398439	515.4854125976562	-1058.190185546875	747.3436889648439	581.4299926757812	
4	0.03	-960.007019042969	900.5360107421877	141.991729736328	-1163.344360351563	973.4167480468752	225.6682586669921	-1161.221069335938	976.4951171875002	306.2374267578124	-975.146911621094	917.2647094726565	398.9155883789062	-1023.926147460938	875.771423339844	78.17723083496082	-1120.7548828125	455.5407714843751	143.0612640380858	-1133.826171875	447.5373535156251	267.4956665039062	-1156.236572265625	398.2594604492189	142.6586456298827	-1112.019165039063	377.1082153320313	203.3099060058593	-1274.74853515625	75.43786621093751	184.2143707275389	-1253.55029296875	91.13380432128908	264.974151611328	-1329.333374023438	44.72737121582032	232.6839752197264	-1145.685791015625	27.6024513244629	261.5245361328124	-1136.707153320313	41.78767013549805	208.650421142578	-1176.498046875	26.07236099243165	160.1920776367186	-1035.755249023438	860.3839111328127	457.7974243164062	-876.403259277344	476.3323364257814	391.0452575683594	-893.758483886719	469.1324768066407	259.7442932128906	-876.534851074219	409.1997680664064	392.8678588867188	-820.5770263671877	425.188446044922	334.7202758789062	-777.9177856445315	71.94075012207033	357.0007019042968	-769.0921630859377	95.55962371826173	272.7711791992187	-816.394226074219	24.14049720764161	303.7526855468749	-635.9008789062501	63.97342681884767	286.3710327148438	-639.9592895507814	84.74405670166017	329.9775390625	-672.1258544921876	66.10243225097658	375.3462829589844	-1107.882446289063	1420.99609375	236.0234222412109	-1167.227172851563	1184.336791992188	253.3552856445312	-986.660095214844	1335.233520507813	242.4736785888671	-918.0654907226565	1162.05029296875	255.569595336914	-1169.157348632813	1197.419189453125	149.4501647949218	-1147.15478515625	1338.112915039063	150.9403686523436	-1110.826782226563	1337.428466796875	81.83452606201159	-1058.286865234375	1339.903076171875	57.18660736083973	-1001.432739257813	1023.685363769531	-14.07891273498548	-1025.220092773438	999.352722167969	62.69067001342762	-1026.984130859375	990.895935058594	12.04339504241931	-806.2752075195315	856.2842407226565	35.52320098876944	-838.717712402344	835.986755371094	-30.07844734191906	-732.9879150390626	801.7292480468752	29.02467155456535	-802.353698730469	759.5096435546876	-29.49786186218272	-1185.977416992188	1213.029174804688	343.6658935546874	-1155.346801757813	1342.657958984375	337.3395080566406	-1111.001708984375	1365.033447265625	404.9997253417969	-1068.497192382813	1368.375122070313	427.2918701171875	-1109.547729492188	1058.996826171875	527.5682373046875	-1145.722900390625	1047.110595703125	450.6212158203125	-1148.994873046875	1032.458984375	502.6238403320312	-1000.118103027344	818.3565673828127	508.7497863769531	-1050.387329101563	821.278015136719	570.9921264648438	-972.1691284179691	739.4086303710939	515.8328857421875	-1048.589599609375	745.5657958984376	581.9552612304688	
